<?xml version="1.0" encoding="UTF-8" standalone="no"?>
<!-- Created with Inkscape (http://www.inkscape.org/) -->

<svg
   xmlns:dc="http://purl.org/dc/elements/1.1/"
   xmlns:cc="http://creativecommons.org/ns#"
   xmlns:rdf="http://www.w3.org/1999/02/22-rdf-syntax-ns#"
   xmlns:svg="http://www.w3.org/2000/svg"
   xmlns="http://www.w3.org/2000/svg"
   xmlns:sodipodi="http://sodipodi.sourceforge.net/DTD/sodipodi-0.dtd"
   xmlns:inkscape="http://www.inkscape.org/namespaces/inkscape"
   width="514.29297"
   height="127.19814"
   id="svg2"
   version="1.1"
   inkscape:version="0.91 r13725"
   sodipodi:docname="logo_bottom.svg">
  <defs
     id="defs4">
    <inkscape:perspective
       sodipodi:type="inkscape:persp3d"
       inkscape:vp_x="0 : 526.18109 : 1"
       inkscape:vp_y="0 : 1000 : 0"
       inkscape:vp_z="744.09448 : 526.18109 : 1"
       inkscape:persp3d-origin="372.04724 : 350.78739 : 1"
       id="perspective10" />
    <inkscape:perspective
       id="perspective2942"
       inkscape:persp3d-origin="2194.0159 : 2065.2637 : 1"
       inkscape:vp_z="4388.0317 : 3097.8955 : 1"
       inkscape:vp_y="0 : 1000 : 0"
       inkscape:vp_x="0 : 3097.8955 : 1"
       sodipodi:type="inkscape:persp3d" />
    <inkscape:perspective
       id="perspective3114"
       inkscape:persp3d-origin="2194.0159 : 2065.2637 : 1"
       inkscape:vp_z="4388.0317 : 3097.8955 : 1"
       inkscape:vp_y="0 : 1000 : 0"
       inkscape:vp_x="0 : 3097.8955 : 1"
       sodipodi:type="inkscape:persp3d" />
    <inkscape:perspective
       id="perspective2946"
       inkscape:persp3d-origin="0.5 : 0.33333333 : 1"
       inkscape:vp_z="1 : 0.5 : 1"
       inkscape:vp_y="0 : 1000 : 0"
       inkscape:vp_x="0 : 0.5 : 1"
       sodipodi:type="inkscape:persp3d" />
  </defs>
  <sodipodi:namedview
     id="base"
     pagecolor="#000000"
     bordercolor="#666666"
     borderopacity="1.0"
     inkscape:pageopacity="1"
     inkscape:pageshadow="2"
     inkscape:zoom="1"
     inkscape:cx="168.73933"
     inkscape:cy="42.390881"
     inkscape:document-units="px"
     inkscape:current-layer="layer1"
     showgrid="false"
     inkscape:window-width="1385"
     inkscape:window-height="832"
     inkscape:window-x="0"
     inkscape:window-y="1"
     inkscape:window-maximized="0"
     fit-margin-top="0"
     fit-margin-left="0"
     fit-margin-right="0"
     fit-margin-bottom="0" />
  <metadata
     id="metadata7">
    <rdf:RDF>
      <cc:Work
         rdf:about="">
        <dc:format>image/svg+xml</dc:format>
        <dc:type
           rdf:resource="http://purl.org/dc/dcmitype/StillImage" />
        <dc:title></dc:title>
      </cc:Work>
    </rdf:RDF>
  </metadata>
  <g
     inkscape:groupmode="layer"
     id="layer2"
     inkscape:label="background"
     transform="translate(-6.4405157,-612.26627)" />
  <g
     inkscape:label="Layer 1"
     inkscape:groupmode="layer"
     id="layer1"
     transform="translate(-6.4405157,-920.53396)">
    <path
       inkscape:connector-curvature="0"
       id="104"
       style="fill:#ffffff;fill-opacity:1;fill-rule:nonzero;stroke:none"
       d="m 80.511926,1001.9828 c -3.155171,20.2496 3.455664,38.8494 7.061575,43.9493 0,0 -17.879307,-9.1499 -26.142851,-10.1999 -8.413791,-1.0499 -33.204426,4.2 -36.509844,7.0499 4.206897,-4.1999 4.05665,-8.6998 -0.300492,-11.2498 -6.761082,-3.8999 -10.817731,-5.5499 -17.2783206,16.1998 1.0517238,-11.3999 6.4605896,-23.5497 -0.7512314,-23.9997 6.460589,-2.2499 4.056649,-12.4498 0,-8.3999 5.559112,-12.2998 3.455664,-52.19918 -0.1502463,-62.24902 5.8596053,9.59986 18.0295523,-6.7499 25.3916203,-32.54952 -2.103449,4.49994 -8.564039,33.59951 -6.91133,41.99937 -6.761082,-2.54995 -8.864529,2.69997 -5.559111,6.74991 -6.46059,-2.69996 -5.559112,32.99956 5.859605,40.94936 -4.05665,-2.6999 -7.66256,-0.75 -7.812806,1.8 -0.300493,3.2999 1.051723,6.2999 4.657634,8.2499 3.756157,2.1 11.568963,-2.25 12.47044,-6.2999 4.958127,8.9998 35.45812,30.2995 45.975358,-11.9998" />
    <path
       inkscape:connector-curvature="0"
       id="105"
       style="fill:#ffffff;fill-opacity:1;fill-rule:nonzero;stroke:none"
       d="m 483.92316,1037.8322 c 18.63054,1.2 19.83251,0.45 36.81033,8.0999 -10.51723,-2.25 -8.41378,-49.64926 -3.45566,-43.1994 -4.05665,-5.24988 -5.70936,-34.94944 2.2537,-45.44929 -6.46059,8.39988 -19.38177,-20.24969 -19.98276,-27.44959 0,7.6499 6.61084,28.34958 4.50739,34.64949 10.36699,-6.7499 5.8596,22.19967 -2.25369,25.04963 6.00984,0.14999 9.61575,20.39966 -0.75123,18.29976 3.30541,6.2999 6.76107,13.1998 1.20197,14.0998 -4.2069,0.8999 -6.46059,-0.3 -4.2069,-4.5 -4.50739,3.45 -15.32512,-1.05 -17.8793,-1.05 30.80048,13.9498 -1.80297,13.9498 -5.85961,13.6498 -4.05665,-0.45 -19.08128,1.65 -7.21182,-9.5998 -6.76109,5.8499 -18.1798,14.6998 -37.71182,16.4997 13.67241,0.9 30.04926,4.2 35.30787,8.3999 -6.46059,-10.9498 11.86947,-7.9499 19.23153,-7.4999" />
    <path
       inkscape:connector-curvature="0"
       id="106"
       style="fill:#ffffff;fill-opacity:1;fill-rule:nonzero;stroke:none"
       d="m 143.61536,1012.4826 c -0.45074,0.6 -0.75124,1.35 -0.90148,2.25 -0.15024,1.0499 -0.30049,1.9499 -0.30049,2.9999 -0.15025,2.1 -0.45074,5.9999 -0.90148,11.5498 -0.30049,5.55 -0.60098,8.3999 -0.60098,8.3999 0,0.75 0,1.2 0,1.35 0.15025,0.15 0.30049,0.6 0.75123,1.35 -0.90148,1.2 -1.35222,2.2499 -1.65271,2.9999 -0.30049,0.75 -0.60099,1.95 -0.90148,3.6 -0.15024,-1.2 -0.45074,-2.4 -0.75123,-3.6 -0.45074,-1.2 -0.90147,-2.0999 -1.80295,-2.8499 0.15024,-0.15 0.30049,-0.45 0.30049,-0.9 0.15024,-0.3 0.15024,-0.6 0.15024,-0.75 0,0 -1.35222,-16.3498 -1.35222,-16.3498 0,0 -1.35221,16.1998 -1.35221,16.1998 0,0.15 0.15025,0.45 0.15025,0.75 0.15025,0.3 0.30049,0.6 0.45073,0.9 -0.75123,1.05 -1.20196,2.0999 -1.50246,3.1499 -0.45074,1.2 -0.60099,2.4 -0.75123,3.45 -0.30049,-1.35 -0.60099,-2.7 -0.90147,-3.6 -0.45075,-1.0499 -1.05173,-1.9499 -1.95321,-2.9999 0.3005,-0.3 0.45074,-0.75 0.60099,-1.2 0.15024,-0.45 0.30049,-0.9 0.30049,-1.35 0,0 -0.60098,-5.0999 -0.60098,-5.0999 -0.60099,-5.9999 -1.05173,-10.6498 -1.50247,-13.7998 -0.30049,-3.15 -0.60098,-4.7999 -0.75123,-5.2499 -0.15025,-0.45 -0.45073,-0.75 -0.75123,-1.2 0.75123,-0.75 1.35221,-1.5 1.65271,-2.55 0.30049,-1.05 0.45073,-2.3999 0.75123,-4.0499 0.15025,1.2 0.45074,2.55 0.75123,3.5999 0.45074,1.2 1.05172,2.1 1.9532,3 -0.30049,0.75 -0.45073,1.35 -0.45073,1.95 0,0 1.20196,13.4998 1.20196,13.4998 0,0 1.20197,-13.1998 1.20197,-13.1998 0,-0.6 0,-1.05 0,-1.2 -0.15024,-0.3 -0.30048,-0.6 -0.60098,-1.05 0.90148,-0.9 1.50246,-2.1 1.80296,-3.7499 0.30048,-1.5 0.60098,-2.55 0.75123,-3 0.15024,1.8 0.45074,3 0.75123,4.0499 0.30049,0.9 0.75123,1.8 1.50246,2.7 -0.15024,0.15 -0.30049,0.3 -0.30049,0.6 -0.15025,0.45 -0.15025,0.75 -0.15025,1.05 0,0 1.05173,13.7998 1.05173,13.7998 0,0 0.90147,-13.1998 0.90147,-13.1998 0,-0.3 0,-0.6 0,-0.9 0,-0.3 -0.15024,-0.75 -0.60099,-1.35 0.60099,-0.45 0.90149,-1.2 1.35222,-2.25 0.3005,-1.05 0.60099,-2.5499 1.05173,-4.3499 0.15025,1.05 0.30049,2.25 0.45073,3.2999 0.3005,1.2 0.75123,2.4 1.50247,3.3" />
    <path
       inkscape:connector-curvature="0"
       id="107"
       style="fill:#ffffff;fill-opacity:1;fill-rule:nonzero;stroke:none"
       d="m 163.89861,1012.4826 c -0.45074,0.6 -0.75123,1.35 -0.90149,2.25 -0.15024,1.0499 -0.30048,1.9499 -0.30048,2.9999 -0.15025,2.1 -0.45075,5.9999 -0.90148,11.5498 -0.3005,5.55 -0.60098,8.3999 -0.60098,8.3999 0,0.75 0,1.2 0,1.35 0.15024,0.15 0.30048,0.6 0.75123,1.35 -0.90148,1.2 -1.35222,2.2499 -1.65271,2.9999 -0.3005,0.75 -0.60099,1.95 -1.05173,3.6 0,-1.2 -0.30049,-2.4 -0.60099,-3.6 -0.45073,-1.2 -0.90147,-2.0999 -1.80295,-2.8499 0.15025,-0.15 0.30049,-0.45 0.30049,-0.9 0.15025,-0.3 0.15025,-0.6 0.15025,-0.75 0,0 -1.35222,-16.3498 -1.35222,-16.3498 0,0 -1.35221,16.1998 -1.35221,16.1998 0,0.15 0.15025,0.45 0.15025,0.75 0.15024,0.3 0.30048,0.6 0.45073,0.9 -0.75123,1.05 -1.20197,2.0999 -1.65271,3.1499 -0.30049,1.2 -0.45073,2.4 -0.60099,3.45 -0.30048,-1.35 -0.60098,-2.7 -0.90147,-3.6 -0.45074,-1.0499 -1.05172,-1.9499 -1.9532,-2.9999 0.15025,-0.3 0.45074,-0.75 0.60098,-1.2 0.15025,-0.45 0.3005,-0.9 0.3005,-1.35 0,0 -0.60099,-5.0999 -0.60099,-5.0999 -0.60098,-5.9999 -1.05173,-10.6498 -1.50246,-13.7998 -0.3005,-3.15 -0.60098,-4.7999 -0.75123,-5.2499 -0.15025,-0.45 -0.45074,-0.75 -0.75123,-1.2 0.75123,-0.75 1.35221,-1.5 1.65271,-2.55 0.30048,-1.05 0.45073,-2.3999 0.75123,-4.0499 0.15024,1.2 0.45074,2.55 0.75123,3.5999 0.45074,1.2 1.05172,2.1 1.9532,3 -0.3005,0.75 -0.45074,1.35 -0.45074,1.95 0,0 1.20197,13.4998 1.20197,13.4998 0,0 1.20197,-13.1998 1.20197,-13.1998 0,-0.6 0,-1.05 0,-1.2 -0.15025,-0.3 -0.30049,-0.6 -0.60098,-1.05 0.90148,-0.9 1.50246,-2.1 1.80295,-3.7499 0.30049,-1.5 0.60099,-2.55 0.75123,-3 0.15024,1.8 0.45074,3 0.75123,4.0499 0.3005,0.9 0.75123,1.8 1.50246,2.7 -0.15024,0.15 -0.30048,0.3 -0.30048,0.6 -0.15025,0.45 -0.15025,0.75 -0.15025,1.05 0,0 1.05172,13.7998 1.05172,13.7998 0,0 0.90148,-13.1998 0.90148,-13.1998 0,-0.3 0,-0.6 0,-0.9 0,-0.3 -0.15025,-0.75 -0.60098,-1.35 0.45073,-0.45 0.90147,-1.2 1.35221,-2.25 0.3005,-1.05 0.60098,-2.5499 0.90148,-4.3499 0.30049,1.05 0.45073,2.25 0.60098,3.2999 0.3005,1.2 0.75124,2.4 1.50247,3.3" />
    <path
       inkscape:connector-curvature="0"
       id="108"
       style="fill:#ffffff;fill-opacity:1;fill-rule:nonzero;stroke:none"
       d="m 184.18185,1012.4826 c -0.45074,0.6 -0.75123,1.35 -0.90147,2.25 -0.15026,1.0499 -0.3005,1.9499 -0.3005,2.9999 -0.15024,2.1 -0.45074,5.9999 -0.90147,11.5498 -0.45075,5.55 -0.60099,8.3999 -0.60099,8.3999 0,0.75 0,1.2 0,1.35 0.15024,0.15 0.30049,0.6 0.75123,1.35 -0.90147,1.2 -1.35222,2.2499 -1.65271,2.9999 -0.3005,0.75 -0.60098,1.95 -1.05173,3.6 0,-1.2 -0.30048,-2.4 -0.60098,-3.6 -0.45073,-1.2 -1.05172,-2.0999 -1.80295,-2.8499 0.15024,-0.15 0.15024,-0.45 0.30049,-0.9 0.15025,-0.3 0.15025,-0.6 0.15025,-0.75 0,0 -1.35222,-16.3498 -1.35222,-16.3498 0,0 -1.35221,16.1998 -1.35221,16.1998 0,0.15 0.15024,0.45 0.15024,0.75 0.15024,0.3 0.30049,0.6 0.30049,0.9 -0.60098,1.05 -1.05172,2.0999 -1.50246,3.1499 -0.30049,1.2 -0.60098,2.4 -0.60098,3.45 -0.3005,-1.35 -0.60099,-2.7 -1.05173,-3.6 -0.30049,-1.0499 -0.90147,-1.9499 -1.80295,-2.9999 0.15024,-0.3 0.45073,-0.75 0.60098,-1.2 0.15025,-0.45 0.3005,-0.9 0.3005,-1.35 0,0 -0.60099,-5.0999 -0.60099,-5.0999 -0.60099,-5.9999 -1.05172,-10.6498 -1.50246,-13.7998 -0.3005,-3.15 -0.60099,-4.7999 -0.75123,-5.2499 -0.15025,-0.45 -0.45075,-0.75 -0.75123,-1.2 0.75123,-0.75 1.20196,-1.5 1.50246,-2.55 0.30048,-1.05 0.60098,-2.3999 0.90147,-4.0499 0.15025,1.2 0.3005,2.55 0.75123,3.5999 0.3005,1.2 1.05173,2.1 1.95321,3 -0.3005,0.75 -0.60099,1.35 -0.60099,1.95 0,0 1.35222,13.4998 1.35222,13.4998 0,0 1.20197,-13.1998 1.20197,-13.1998 0,-0.6 0,-1.05 -0.15025,-1.2 0,-0.3 -0.15025,-0.6 -0.45074,-1.05 0.90148,-0.9 1.50247,-2.1 1.80295,-3.7499 0.3005,-1.5 0.60099,-2.55 0.75123,-3 0.15026,1.8 0.45075,3 0.75124,4.0499 0.15025,0.9 0.75123,1.8 1.50246,2.7 -0.15025,0.15 -0.30049,0.3 -0.30049,0.6 -0.15024,0.45 -0.15024,0.75 -0.15024,1.05 0,0 1.05171,13.7998 1.05171,13.7998 0,0 0.90149,-13.1998 0.90149,-13.1998 0,-0.3 0,-0.6 0,-0.9 0,-0.3 -0.3005,-0.75 -0.60099,-1.35 0.45073,-0.45 0.90148,-1.2 1.35222,-2.25 0.30049,-1.05 0.60098,-2.5499 0.90148,-4.3499 0.30048,1.05 0.45073,2.25 0.60098,3.2999 0.30049,1.2 0.75123,2.4 1.50246,3.3" />
    <path
       inkscape:connector-curvature="0"
       id="109"
       style="fill:#ffffff;fill-opacity:1;fill-rule:nonzero;stroke:none"
       d="m 193.04638,1037.0822 c -0.15024,0.15 -0.45073,0.6 -0.75123,1.5 -0.30049,0.75 -0.45074,1.2 -0.45074,1.5 0,0.3 0.15025,0.75 0.45074,1.35 0.3005,0.6 0.45074,1.1999 0.75123,1.7999 -1.35222,-0.45 -2.40394,-0.6 -3.15517,-0.6 -0.75123,0 -1.80296,0.15 -3.00492,0.45 0.30049,-0.6 0.60098,-1.1999 0.75123,-1.6499 0.30049,-0.45 0.30049,-0.9 0.30049,-1.35 0,-0.3 -0.15025,-0.75 -0.30049,-1.35 -0.3005,-0.6 -0.45074,-1.2 -0.75123,-1.65 0.45073,0.15 0.90147,0.45 1.35221,0.45 0.45074,0.15 0.75123,0.15 1.05173,0.15 0.15024,0 0.30048,0 0.60098,0 0.30049,0 0.75123,-0.15 1.50247,-0.3 0.60098,0 1.20197,-0.15 1.6527,-0.3" />
    <path
       inkscape:connector-curvature="0"
       id="110"
       style="fill:#ffffff;fill-opacity:1;fill-rule:nonzero;stroke:none"
       d="m 215.28283,1028.5324 c -0.75123,0.6 -1.20198,1.3499 -1.50246,2.2499 -0.30049,0.75 -0.45075,1.65 -0.45075,2.55 0,0 0,1.35 0,1.35 0,0 0,1.7999 0,1.7999 0,0.9 0.15026,1.65 0.3005,2.1 0.15025,0.6 0.60099,1.05 1.20197,1.65 -1.05172,1.2 -1.9532,2.3999 -2.55418,3.4499 -0.75124,1.2 -1.20198,2.25 -1.35222,3.45 -0.15025,-1.05 -0.45075,-2.1 -1.20198,-3.45 -0.60097,-1.2 -1.35221,-2.2499 -2.40393,-3.1499 0.15024,-0.15 0.15024,-0.3 0.30049,-0.6 0.15025,-0.3 0.15025,-0.6 0.15025,-0.75 0,0 0,-10.6498 0,-10.6498 0,-0.3 -0.15025,-0.45 -0.45074,-0.75 -0.45075,-0.15 -0.90148,-0.3 -1.35222,-0.45 0,0 0,11.5498 0,11.5498 0.15024,0.3 0.15024,0.6 0.3005,0.9 0,0.3 0.15024,0.45 0.15024,0.6 -1.05173,0.9 -1.9532,1.7999 -2.40395,2.8499 -0.45073,1.05 -0.90147,2.25 -1.20196,3.75 -0.3005,-1.35 -0.75123,-2.55 -1.20197,-3.75 -0.60099,-1.05 -1.65271,-2.0999 -3.15517,-2.6999 0.45073,-0.3 0.75123,-0.75 1.20196,-1.35 0.45075,-0.75 0.60099,-1.2 0.60099,-1.65 0,0 0.15024,-22.7996 0.15024,-22.7996 0,-0.15 -0.15024,-0.45 -0.45073,-0.9 -0.45074,-0.3 -0.75123,-0.75 -1.20197,-1.2 1.50246,-0.6 2.55419,-1.35 3.00492,-2.25 0.45075,-0.9 1.05173,-2.3999 1.95321,-4.6499 0.75123,1.95 1.6527,3.2999 2.40393,4.1999 0.75123,0.9 1.95321,1.35 3.30543,1.35 0.60098,0 0.90147,0 1.35221,0 0.30049,-0.15 0.90148,-0.3 1.65271,-0.45 -0.15024,0.45 0,1.2 0.45074,2.1 0.45073,0.9 1.20196,1.35 2.10345,1.5 -0.60099,1.05 -0.90149,1.9499 -1.05173,2.8499 -0.15024,0.75 -0.30049,1.65 -0.30049,2.55 0,1.05 0.15025,1.95 0.30049,2.8499 0.15024,0.9 0.60099,1.95 1.20198,2.85 -0.60099,0.15 -1.20198,0.45 -1.65271,0.6 -0.45074,0.3 -1.05173,0.6 -1.65272,1.05 0.45075,0.45 1.05173,0.75 1.65272,0.9 0.45073,0.3 1.05172,0.45 1.80295,0.45 z m -7.21182,-8.5499 c 0,-0.15 0,-0.45 0,-0.75 0,-0.3 0,-0.6 0,-1.05 0,-0.9 0,-1.65 -0.15025,-2.4 -0.15024,-0.7499 -0.45074,-1.1999 -0.90147,-1.1999 -0.15026,0 -0.45074,0.15 -0.75123,0.45 -0.3005,0.15 -0.45074,0.45 -0.45074,0.5999 0,0 0,10.3499 0,10.3499 0,0 1.35221,0 1.35221,0 0.30049,-0.3 0.60099,-1.05 0.75123,-2.25 0,-1.3499 0.15025,-2.5499 0.15025,-3.7499 z" />
    <path
       inkscape:connector-curvature="0"
       id="111"
       style="fill:#ffffff;fill-opacity:1;fill-rule:nonzero;stroke:none"
       d="m 238.57101,1040.3822 c -0.60099,0.15 -0.90149,0.3 -1.35222,0.3 -1.50246,0 -3.00494,0.75 -4.5074,1.9499 -1.50246,1.35 -2.40393,2.85 -2.55418,4.35 0.15025,-1.35 -0.60098,-2.7 -2.10345,-4.2 -1.6527,-1.4999 -3.45566,-2.2499 -5.40887,-2.2499 0,0 -0.45073,-0.15 -0.45073,-0.15 0.30049,-0.3 0.60099,-0.75 1.05172,-1.35 0.3005,-0.6 0.45074,-1.05 0.45074,-1.35 0,0 0,-23.5496 0,-23.5496 0,-0.15 -0.15024,-0.45 -0.45074,-0.75 -0.30049,-0.3 -0.75123,-0.75 -1.05172,-1.05 0.15025,0 0.30049,-0.15 0.45073,-0.15 0.15026,0 0.45075,0 0.60099,0 1.65271,0 3.15518,-0.75 4.50739,-2.1 1.50247,-1.3499 2.2537,-2.8499 2.40394,-4.3499 0,1.35 0.60099,2.7 1.80295,3.8999 1.35222,1.35 2.40395,2.1 3.45567,2.25 1.05173,0.15 1.6527,0.15 2.10345,0.3 0.45074,0.15 0.75123,0.15 0.90147,0.15 -0.45073,0.3 -0.75123,0.6 -1.05172,0.75 -0.3005,0.3 -0.3005,0.6 -0.3005,0.75 0,0 0,24.2996 0,24.2996 0,0.15 0.15026,0.6 0.45075,1.05 0.45074,0.6 0.75123,0.9 1.05173,1.2 z m -7.21183,-3 c 0,0 0,-23.0996 0,-23.0996 0,-0.15 -0.30049,-0.6 -0.90148,-1.05 0,0 -0.60099,0 -0.60099,0 -0.15024,0.15 -0.15024,0.3 -0.45073,0.6 -0.15024,0.15 -0.15024,0.45 -0.15024,0.45 0,0 0,23.5496 0,23.5496 0,0.15 0,0.45 0.15024,0.75 0.30049,0.15 0.30049,0.45 0.45073,0.45 0,0 0.60099,0 0.60099,0 0.15024,-0.15 0.45074,-0.3 0.60099,-0.75 0.15024,-0.3 0.30049,-0.6 0.30049,-0.9 z" />
    <path
       inkscape:connector-curvature="0"
       id="112"
       style="fill:#ffffff;fill-opacity:1;fill-rule:nonzero;stroke:none"
       d="m 260.80744,1040.3822 c -1.80294,0.45 -3.30541,1.35 -4.80787,2.6999 -1.35222,1.2 -2.25369,2.55 -2.70443,3.9 -0.30049,-1.2 -1.35222,-2.55 -2.85468,-4.05 -1.50246,-1.3499 -3.15517,-2.0999 -4.95813,-2.5499 0.3005,-0.45 0.60099,-1.05 1.05173,-1.95 0.30049,-0.9 0.60097,-1.5 0.60097,-1.65 0,0 0,-20.6997 0,-20.6997 0,-0.15 -0.30048,-0.5999 -0.75123,-1.3499 -0.45073,-0.75 -0.75123,-1.2 -0.90147,-1.5 0.15024,0 0.15024,-0.15 0.3005,-0.15 0,-0.15 0.15024,-0.3 0.45073,-0.45 1.50246,-0.3 2.85468,-1.2 4.2069,-2.55 1.35221,-1.5 2.25369,-2.8499 3.00492,-4.3499 0,1.2 0.75123,2.7 2.25369,4.3499 1.50246,1.65 3.15518,2.55 4.95813,3 -0.45073,0.75 -0.90147,1.65 -1.20196,2.4 -0.3005,0.5999 -0.45074,1.3499 -0.45074,2.0999 0,1.05 0.45074,2.25 1.20197,4.05 -0.60099,0.3 -1.35222,0.75 -1.95321,1.6499 -0.75123,0.75 -1.20197,1.35 -1.35221,1.95 -0.30049,-0.75 -0.60099,-1.5 -1.05172,-2.1 -0.45075,-0.6 -1.05173,-1.1999 -1.95321,-1.6499 0.45073,-0.9 0.75123,-1.65 0.75123,-2.1 0.15025,-0.3 0.15025,-0.75 0.15025,-1.2 0,0 0,-1.05 0,-1.05 0,0 0,-0.75 0,-0.75 0,-0.75 0,-1.3499 -0.15025,-1.4999 0,-0.3 -0.3005,-0.75 -0.75123,-1.05 -0.3005,0 -0.45074,0.15 -0.75123,0.45 -0.15024,0.3 -0.3005,0.6 -0.45074,0.75 0,0 0,22.3496 0,22.3496 0.15024,0.45 0.3005,0.75 0.45074,1.2 0.15025,0.3 0.30049,0.45 0.45073,0.45 0.45075,0 0.75123,-0.3 0.90149,-0.75 0.30049,-0.3 0.30049,-0.9 0.30049,-1.35 0,0 0,-0.9 0,-0.9 0,-0.8999 0,-1.6499 -0.15025,-2.3999 -0.15024,-0.6 -0.45074,-1.5 -0.75123,-2.4 0.45073,-0.15 0.90148,-0.75 1.65271,-1.5 0.60099,-0.8999 1.20197,-1.6499 1.50246,-2.3999 0.15024,0.75 0.45074,1.35 1.05173,2.0999 0.60099,0.75 1.35222,1.35 2.25369,1.65 -0.3005,0.75 -0.45074,1.65 -0.75123,2.7 -0.3005,0.9 -0.45074,1.6499 -0.45074,1.9499 0,1.65 0.60099,3.15 1.6527,4.65" />
    <path
       inkscape:connector-curvature="0"
       id="113"
       style="fill:#ffffff;fill-opacity:1;fill-rule:nonzero;stroke:none"
       d="m 282.29266,1029.1324 c -0.30049,0.8999 -0.45073,2.0999 -0.75123,3.5999 -0.15024,1.5 -0.30049,2.4 -0.30049,2.6999 0,0.75 0,1.65 0,2.4 0.15025,0.6 0.45075,1.5 0.90148,2.55 -1.65271,0.75 -3.15517,1.65 -4.65763,2.9999 -1.50246,1.2 -2.25369,2.55 -2.25369,3.75 -0.15026,-1.2 -0.90149,-2.4 -2.25371,-3.75 -1.3522,-1.3499 -2.85468,-2.3999 -4.35714,-2.9999 0.15026,-0.3 0.3005,-1.05 0.45074,-2.1 0.15025,-1.2 0.30049,-1.95 0.45075,-2.4 0,-0.2999 -0.15026,-0.7499 -0.15026,-1.0499 0,-0.3 -0.15024,-0.75 -0.30049,-1.05 -0.15024,-0.45 -0.30048,-0.75 -0.45074,-1.2 0,-0.15 0.15026,-0.3 0.45074,-0.6 0.45075,-0.3 0.75124,-0.6 1.05172,-0.9 0.15026,-0.3 0.45075,-0.6 0.75123,-1.05 0.15026,-0.45 0.45075,-0.8999 0.60099,-1.3499 0.3005,1.1999 1.35222,2.3999 3.00492,3.8999 -0.15024,0.45 -0.15024,1.05 -0.30048,1.65 -0.15025,0.75 -0.15025,1.35 -0.15025,1.9499 0,1.2 0.30049,2.25 0.90148,2.85 0,0 0.45074,0 0.45074,0 0.45073,-0.3 0.75123,-0.75 0.90148,-1.2 0.15024,-0.45 0.30048,-1.05 0.30048,-1.8 0,0 0,-1.0499 0,-1.0499 0,0 0,-0.9 0,-0.9 0,-0.3 0,-0.75 0,-1.2 -0.15024,-0.3 -0.30048,-1.05 -0.75123,-2.1 -0.45073,-1.05 -1.50246,-2.2499 -3.00492,-3.5999 -1.50246,-1.35 -2.85468,-2.55 -4.2069,-3.6 0.15026,-1.35 0.3005,-2.5499 0.45074,-3.7499 0.15025,-1.35 0.30049,-1.95 0.30049,-2.25 0,0 0,-1.05 0,-1.05 0,-0.9 0,-1.4999 -0.15024,-1.9499 0,-0.6 -0.15025,-1.2 -0.60099,-2.1 1.80296,-0.45 3.45567,-1.35 4.80789,-2.7 1.35221,-1.2 1.9532,-2.5499 1.9532,-4.0499 0.30049,1.2 0.90148,2.55 2.10345,3.8999 1.20196,1.35 2.70442,2.4 4.35714,2.85 0,0 0,7.1999 0,7.1999 -0.75123,0.6 -1.50246,1.2 -2.10345,1.95 -0.60099,0.5999 -0.75123,1.1999 -0.75123,1.7999 0,-0.6 -0.45074,-1.0499 -1.05173,-1.7999 -0.60099,-0.6 -1.20196,-1.2 -1.80295,-1.8 0.15025,-0.75 0.30049,-1.35 0.45073,-2.25 0,-0.75 0.15026,-1.5 0.15026,-2.0999 0,-0.6 -0.15026,-1.2 -0.15026,-1.65 -0.15024,-0.3 -0.45073,-0.6 -0.90147,-0.6 -0.45073,0 -0.90148,0.3 -1.05172,0.9 -0.15026,0.75 -0.3005,1.35 -0.3005,2.0999 0,0.75 0,1.05 0,1.2 0,1.95 0.3005,3.45 0.90149,4.35 0.60097,1.0499 1.6527,2.2499 3.15516,3.8999 1.35222,1.5 2.40394,2.4 2.85468,2.85 0.30049,0.3 0.75123,0.6 1.05172,0.6" />
    <path
       inkscape:connector-curvature="0"
       id="114"
       style="fill:#ffffff;fill-opacity:1;fill-rule:nonzero;stroke:none"
       d="m 306.03157,1040.3822 c -0.60097,0.15 -1.05172,0.3 -1.3522,0.3 -1.50248,0 -3.00494,0.75 -4.5074,1.9499 -1.50246,1.35 -2.40394,2.85 -2.55418,4.35 0.15024,-1.35 -0.60099,-2.7 -2.25369,-4.2 -1.65272,-1.4999 -3.45567,-2.2499 -5.40887,-2.2499 0,0 -0.30049,-0.15 -0.30049,-0.15 0.30049,-0.3 0.60097,-0.75 0.90147,-1.35 0.45073,-0.6 0.60099,-1.05 0.60099,-1.35 0,0 0,-23.5496 0,-23.5496 0,-0.15 -0.15026,-0.45 -0.45074,-0.75 -0.45075,-0.3 -0.75123,-0.75 -1.05172,-1.05 0.15024,0 0.30049,-0.15 0.45073,-0.15 0.15024,0 0.3005,0 0.60099,0 1.6527,0 3.15516,-0.75 4.50738,-2.1 1.35222,-1.3499 2.10345,-2.8499 2.25369,-4.3499 0,1.35 0.75125,2.7 1.95321,3.8999 1.35222,1.35 2.40395,2.1 3.45566,2.25 0.90148,0.15 1.65271,0.15 2.10345,0.3 0.30049,0.15 0.60099,0.15 0.90148,0.15 -0.45073,0.3 -0.75123,0.6 -1.05172,0.75 -0.3005,0.3 -0.45074,0.6 -0.45074,0.75 0,0 0,24.2996 0,24.2996 0,0.15 0.3005,0.6 0.60098,1.05 0.45075,0.6 0.75123,0.9 1.05172,1.2 z m -7.21182,-3 c 0,0 0,-23.0996 0,-23.0996 0,-0.15 -0.30049,-0.6 -0.90147,-1.05 0,0 -0.60099,0 -0.60099,0 -0.15024,0.15 -0.30049,0.3 -0.45073,0.6 -0.15026,0.15 -0.3005,0.45 -0.3005,0.45 0,0 0,23.5496 0,23.5496 0,0.15 0.15024,0.45 0.3005,0.75 0.15024,0.15 0.30049,0.45 0.45073,0.45 0,0 0.60099,0 0.60099,0 0.15024,-0.15 0.3005,-0.3 0.60098,-0.75 0.15025,-0.3 0.30049,-0.6 0.30049,-0.9 z" />
    <path
       inkscape:connector-curvature="0"
       id="115"
       style="fill:#ffffff;fill-opacity:1;fill-rule:nonzero;stroke:none"
       d="m 328.26802,1040.3822 c -1.80295,0.45 -3.45565,1.35 -4.80787,2.6999 -1.35222,1.2 -2.25369,2.55 -2.70444,3.9 -0.3005,-1.2 -1.35222,-2.55 -2.85468,-4.05 -1.50246,-1.3499 -3.15516,-2.0999 -4.95813,-2.5499 0.30049,-0.45 0.60099,-1.05 0.90148,-1.95 0.45074,-0.9 0.60099,-1.5 0.60099,-1.65 0,0 0,-20.6997 0,-20.6997 0,-0.15 -0.15025,-0.5999 -0.60099,-1.3499 -0.45073,-0.75 -0.75123,-1.2 -0.90148,-1.5 0.15025,0 0.15025,-0.15 0.30049,-0.15 0,-0.15 0.15026,-0.3 0.3005,-0.45 1.50246,-0.3 3.00493,-1.2 4.35714,-2.55 1.35222,-1.5 2.2537,-2.8499 3.00493,-4.3499 0,1.2 0.75123,2.7 2.25369,4.3499 1.50246,1.65 3.15518,2.55 4.80788,3 -0.30048,0.75 -0.75123,1.65 -1.05173,2.4 -0.30048,0.5999 -0.45073,1.3499 -0.45073,2.0999 0,1.05 0.45073,2.25 1.05172,4.05 -0.60099,0.3 -1.20196,0.75 -1.80295,1.6499 -0.75123,0.75 -1.20197,1.35 -1.35222,1.95 -0.3005,-0.75 -0.60098,-1.5 -1.05173,-2.1 -0.45073,-0.6 -1.05172,-1.1999 -2.10343,-1.6499 0.45073,-0.9 0.75123,-1.65 0.90147,-2.1 0.15024,-0.3 0.15024,-0.75 0.15024,-1.2 0,0 0,-1.05 0,-1.05 0,0 0,-0.75 0,-0.75 0,-0.75 0,-1.3499 -0.15024,-1.4999 0,-0.3 -0.3005,-0.75 -0.75123,-1.05 -0.3005,0 -0.60099,0.15 -0.75123,0.45 -0.15026,0.3 -0.45074,0.6 -0.60099,0.75 0,0 0,22.3496 0,22.3496 0.30049,0.45 0.45073,0.75 0.60099,1.2 0.15024,0.3 0.30049,0.45 0.30049,0.45 0.60098,0 0.90147,-0.3 1.05173,-0.75 0.15024,-0.3 0.30048,-0.9 0.30048,-1.35 0,0 0,-0.9 0,-0.9 0,-0.8999 -0.15024,-1.6499 -0.15024,-2.3999 -0.15024,-0.6 -0.45074,-1.5 -0.90147,-2.4 0.45073,-0.15 1.05171,-0.75 1.6527,-1.5 0.75123,-0.8999 1.20196,-1.6499 1.65271,-2.3999 0.15024,0.75 0.45074,1.35 1.05173,2.0999 0.60097,0.75 1.3522,1.35 2.25369,1.65 -0.3005,0.75 -0.60099,1.65 -0.75123,2.7 -0.3005,0.9 -0.45074,1.6499 -0.45074,1.9499 0,1.65 0.60098,3.15 1.6527,4.65" />
    <path
       inkscape:connector-curvature="0"
       id="116"
       style="fill:#ffffff;fill-opacity:1;fill-rule:nonzero;stroke:none"
       d="m 339.08575,1037.0822 c -0.15024,0.15 -0.30049,0.6 -0.75123,1.5 -0.30049,0.75 -0.45073,1.2 -0.45073,1.5 0,0.3 0.15024,0.75 0.45073,1.35 0.3005,0.6 0.45074,1.1999 0.75123,1.7999 -1.3522,-0.45 -2.40394,-0.6 -3.15517,-0.6 -0.75123,0 -1.80294,0.15 -3.00492,0.45 0.30049,-0.6 0.60099,-1.1999 0.75123,-1.6499 0.30049,-0.45 0.30049,-0.9 0.30049,-1.35 0,-0.3 -0.15024,-0.75 -0.30049,-1.35 -0.3005,-0.6 -0.45074,-1.2 -0.75123,-1.65 0.45073,0.15 0.90148,0.45 1.35222,0.45 0.45073,0.15 0.75123,0.15 1.05172,0.15 0.15024,0 0.3005,0 0.60098,0 0.30049,0 0.75123,-0.15 1.50247,-0.3 0.60098,0 1.20197,-0.15 1.6527,-0.3" />
    <path
       inkscape:connector-curvature="0"
       id="117"
       style="fill:#ffffff;fill-opacity:1;fill-rule:nonzero;stroke:none"
       d="m 358.16703,1040.3822 c -0.45074,0.15 -0.75123,0.3 -1.05173,0.3 -1.50246,0 -2.85467,0.75 -4.20688,1.9499 -1.35222,1.35 -2.10345,2.85 -2.2537,4.35 0.15025,-1.35 -0.45074,-2.7 -1.9532,-4.2 -1.50246,-1.4999 -3.15518,-2.2499 -4.80788,-2.2499 0,0 -0.45075,-0.15 -0.45075,-0.15 0.3005,-0.3 0.60099,-0.75 0.90149,-1.35 0.30049,-0.6 0.45073,-1.05 0.45073,-1.35 0,0 0,-23.5496 0,-23.5496 0,-0.15 -0.15024,-0.45 -0.30049,-0.75 -0.30049,-0.3 -0.60098,-0.75 -1.05173,-1.05 0.15026,0 0.3005,-0.15 0.45075,-0.15 0.15024,0 0.45074,0 0.60098,0 1.50246,0 2.85468,-0.75 4.05666,-2.1 1.20196,-1.3499 1.95319,-2.8499 2.10344,-4.3499 0,1.35 0.60098,2.7 1.65271,3.8999 1.20196,1.35 2.25369,2.1 3.15517,2.25 0.90147,0.15 1.50246,0.15 1.80296,0.3 0.30049,0.15 0.60099,0.15 0.90147,0.15 -0.45074,0.3 -0.75123,0.6 -1.05173,0.75 -0.15024,0.3 -0.30049,0.6 -0.30049,0.75 0,0 0,24.2996 0,24.2996 0,0.15 0.15025,0.6 0.45075,1.05 0.45073,0.6 0.75123,0.9 0.90147,1.2 z m -6.46059,-3 c 0,0 0,-23.0996 0,-23.0996 0,-0.15 -0.15024,-0.6 -0.75123,-1.05 0,0 -0.60098,0 -0.60098,0 0,0.15 -0.15025,0.3 -0.30049,0.6 -0.15026,0.15 -0.3005,0.45 -0.3005,0.45 0,0 0,23.5496 0,23.5496 0,0.15 0.15024,0.45 0.3005,0.75 0.15024,0.15 0.30049,0.45 0.30049,0.45 0,0 0.60098,0 0.60098,0 0.15025,-0.15 0.30049,-0.3 0.45075,-0.75 0.30048,-0.3 0.30048,-0.6 0.30048,-0.9 z" />
    <path
       inkscape:connector-curvature="0"
       id="118"
       style="fill:#ffffff;fill-opacity:1;fill-rule:nonzero;stroke:none"
       d="m 379.20151,1028.5324 c -0.60099,0.6 -1.05172,1.3499 -1.20197,2.2499 -0.30049,0.75 -0.45074,1.65 -0.45074,2.55 0,0 0,1.35 0,1.35 0,0 0,1.7999 0,1.7999 0,0.9 0.15025,1.65 0.30049,2.1 0.15025,0.6 0.45074,1.05 1.05173,1.65 -0.90148,1.2 -1.65271,2.3999 -2.40395,3.4499 -0.60097,1.2 -0.90147,2.25 -1.05172,3.45 -0.15024,-1.05 -0.45074,-2.1 -1.05172,-3.45 -0.60098,-1.2 -1.35221,-2.2499 -2.2537,-3.1499 0.15026,-0.15 0.15026,-0.3 0.3005,-0.6 0,-0.3 0.15024,-0.6 0.15024,-0.75 0,0 0,-10.6498 0,-10.6498 0,-0.3 -0.15024,-0.45 -0.45074,-0.75 -0.30049,-0.15 -0.75123,-0.3 -1.20196,-0.45 0,0 0,11.5498 0,11.5498 0.15024,0.3 0.15024,0.6 0.15024,0.9 0.15025,0.3 0.15025,0.45 0.30049,0.6 -1.05172,0.9 -1.80295,1.7999 -2.10345,2.8499 -0.45073,1.05 -0.90147,2.25 -1.20196,3.75 -0.15025,-1.35 -0.60099,-2.55 -1.05173,-3.75 -0.60099,-1.05 -1.50246,-2.0999 -2.85468,-2.6999 0.45074,-0.3 0.75123,-0.75 1.20197,-1.35 0.30049,-0.75 0.45075,-1.2 0.45075,-1.65 0,0 0.15024,-22.7996 0.15024,-22.7996 0,-0.15 -0.15024,-0.45 -0.45074,-0.9 -0.30049,-0.3 -0.60099,-0.75 -1.05172,-1.2 1.35222,-0.6 2.25369,-1.35 2.70443,-2.25 0.45074,-0.9 1.05172,-2.3999 1.65271,-4.6499 0.75123,1.95 1.50246,3.2999 2.25369,4.1999 0.75123,0.9 1.65271,1.35 3.00493,1.35 0.45074,0 0.75123,0 1.20197,0 0.30049,-0.15 0.75123,-0.3 1.35222,-0.45 -0.15026,0.45 0,1.2 0.45073,2.1 0.45074,0.9 1.05173,1.35 1.9532,1.5 -0.45074,1.05 -0.75123,1.9499 -1.05172,2.8499 -0.15025,0.75 -0.15025,1.65 -0.15025,2.55 0,1.05 0,1.95 0.3005,2.8499 0.15024,0.9 0.45073,1.95 1.05172,2.85 -0.60099,0.15 -1.05172,0.45 -1.50246,0.6 -0.45074,0.3 -0.90148,0.6 -1.50247,1.05 0.45075,0.45 0.90148,0.75 1.35222,0.9 0.60099,0.3 1.05172,0.45 1.65271,0.45 z m -6.46059,-8.5499 c 0,-0.15 0,-0.45 0,-0.75 0,-0.3 0.15024,-0.6 0.15024,-1.05 0,-0.9 -0.15024,-1.65 -0.30049,-2.4 -0.15024,-0.7499 -0.30048,-1.1999 -0.60098,-1.1999 -0.30049,0 -0.60099,0.15 -0.75123,0.45 -0.30049,0.15 -0.30049,0.45 -0.30049,0.5999 0,0 0,10.3499 0,10.3499 0,0 1.05172,0 1.05172,0 0.3005,-0.3 0.60098,-1.05 0.60098,-2.25 0.15025,-1.3499 0.15025,-2.5499 0.15025,-3.7499 z" />
    <path
       inkscape:connector-curvature="0"
       id="119"
       style="fill:#ffffff;fill-opacity:1;fill-rule:nonzero;stroke:none"
       d="m 398.58328,1040.3822 c -0.30049,0.15 -0.90148,0.45 -1.35222,0.75 -0.60099,0.3 -1.05172,0.6 -1.65271,1.0499 -0.60098,0.45 -1.20197,1.05 -1.80295,1.95 -0.60098,0.9 -1.20197,1.8 -1.80296,2.85 -0.45074,-1.2 -1.35222,-2.55 -2.70443,-3.75 -1.35222,-1.3499 -2.70444,-2.2499 -4.2069,-2.6999 0.3005,-0.3 0.75123,-0.9 1.05173,-2.1 0.45073,-1.05 0.60099,-1.95 0.60099,-2.4 0,0 0,-19.9497 0,-19.9497 0,-0.45 -0.15026,-1.0499 -0.45075,-1.9499 -0.30048,-0.75 -0.60098,-1.35 -0.90147,-1.65 1.6527,-0.15 3.00492,-0.9 4.05664,-2.25 1.20197,-1.35 1.95321,-2.8499 2.40395,-4.4999 0.45073,1.65 1.20196,3 2.25369,4.3499 1.05172,1.2 2.40394,2.1 4.05665,2.4 -0.60098,0.6 -0.90148,1.5 -1.20197,2.7 0,1.1999 -0.15024,1.7999 -0.15024,2.0999 0,0.9 0.15024,1.65 0.45073,2.25 0.15025,0.6 0.45074,1.2 0.90148,1.8 -0.75123,0.45 -1.35221,1.05 -1.9532,1.9499 -0.60099,0.75 -0.90147,1.5 -1.05173,2.25 -0.15024,-0.75 -0.45073,-1.5 -0.75123,-2.1 -0.45073,-0.6 -0.90148,-1.3499 -1.80295,-2.0999 0.45073,-0.6 0.75123,-1.2 0.90147,-1.95 0.15025,-0.6 0.15025,-1.5 0.15025,-2.25 0,0 0,-0.9 0,-0.9 0,-0.45 0,-0.9 -0.15025,-1.1999 -0.15024,-0.3 -0.30048,-0.45 -0.75123,-0.45 -0.45074,0 -0.75123,0.15 -0.90147,0.6 -0.3005,0.3 -0.3005,0.5999 -0.3005,0.8999 0,0 0,21.7497 0,21.7497 0,0.3 0.15026,0.6 0.3005,1.05 0.30049,0.45 0.60099,0.75 1.05172,0.75 0.3005,0 0.60098,-0.3 0.75123,-0.9 0,-0.6 0.15025,-1.05 0.15025,-1.5 0,-0.45 0,-0.75 0,-1.05 -0.15025,-0.3 -0.15025,-0.5999 -0.15025,-0.75 0,0 0,-1.4999 0,-1.4999 0,-1.05 -0.15025,-1.95 -0.30049,-2.55 -0.3005,-0.75 -0.60099,-1.2 -1.05173,-1.65 0.3005,-0.15 0.90149,-0.45 1.50247,-0.8999 0.60098,-0.45 1.05172,-1.05 1.35221,-1.35 0.45074,0.45 0.90149,0.9 1.50246,1.2 0.60099,0.45 1.20198,0.7499 1.95321,1.0499 -0.60099,0.45 -1.05172,1.2 -1.20197,1.95 -0.3005,0.75 -0.45074,1.65 -0.45074,2.4 0,0 0,1.2 0,1.2 0,0 0,0.7499 0,0.7499 0,1.05 0.15024,1.8 0.45074,2.55 0.15025,0.75 0.60098,1.35 1.20197,1.8" />
  </g>
</svg>
